HIERARCHY
ROOT Hips
{
  OFFSET 5.72205e-005 65.662 3.42586
  CHANNELS 6 Xposition Yposition Zposition Zrotation Xrotation Yrotation
  JOINT Chest
  {
    OFFSET 0 8.7983 -4.7612
    CHANNELS 3 Zrotation Xrotation Yrotation
    JOINT Chest2
    {
      OFFSET 0 8.0291 0.4195
      CHANNELS 3 Zrotation Xrotation Yrotation
      JOINT Chest3
      {
        OFFSET 0 9.9351 -2.2114
        CHANNELS 3 Zrotation Xrotation Yrotation
        JOINT Neck
        {
          OFFSET 0 22.3885 -0.4656
          CHANNELS 3 Zrotation Xrotation Yrotation
          JOINT Head
          {
            OFFSET -0.0001 12.643 3.4389
            CHANNELS 3 Zrotation Xrotation Yrotation
            End Site
            {
              OFFSET 0.0001 17.6655 0.5274
            }
          }
        }
        JOINT LeftCollar
        {
          OFFSET 2.2603 21.606 7.4023
          CHANNELS 3 Zrotation Xrotation Yrotation
          JOINT LeftShoulder
          {
            OFFSET 13.5163 -1.1332 -5.0146
            CHANNELS 3 Zrotation Xrotation Yrotation
            JOINT LeftElbow
            {
              OFFSET -0.0995 -28.05 -0.2431
              CHANNELS 3 Zrotation Xrotation Yrotation
              JOINT LeftWrist
              {
                OFFSET 0.0679 -23.3996 -0.1402
                CHANNELS 3 Zrotation Xrotation Yrotation
                JOINT LeftFinger1
                {
                  OFFSET 0.7932 -9.069 2.5189
                  CHANNELS 3 Zrotation Xrotation Yrotation
                  JOINT LeftFinger11
                  {
                    OFFSET -0.8272 -3.3923 0.5977
                    CHANNELS 3 Zrotation Xrotation Yrotation
                    JOINT LeftFinger12
                    {
                      OFFSET -0.5649 -2.3158 0.4082
                      CHANNELS 3 Zrotation Xrotation Yrotation
                      End Site
                      {
                        OFFSET -0.4919 -1.6479 0.2673
                      }
                    }
                  }
                }
                JOINT LeftFinger2
                {
                  OFFSET 0.9159 -9.2044 0.2193
                  CHANNELS 3 Zrotation Xrotation Yrotation
                  JOINT LeftFinger21
                  {
                    OFFSET 0.0117 -4.1944 -0.0248
                    CHANNELS 3 Zrotation Xrotation Yrotation
                    JOINT LeftFinger22
                    {
                      OFFSET 0.0071 -2.3249 -0.0142
                      CHANNELS 3 Zrotation Xrotation Yrotation
                      End Site
                      {
                        OFFSET -0.1475 -2.0882 0.0028
                      }
                    }
                  }
                }
                JOINT LeftFinger3
                {
                  OFFSET 0.6113 -8.7231 -2.0637
                  CHANNELS 3 Zrotation Xrotation Yrotation
                  JOINT LeftFinger31
                  {
                    OFFSET -0.1927 -3.8059 -0.2383
                    CHANNELS 3 Zrotation Xrotation Yrotation
                    JOINT LeftFinger32
                    {
                      OFFSET -0.1091 -2.1688 -0.1362
                      CHANNELS 3 Zrotation Xrotation Yrotation
                      End Site
                      {
                        OFFSET -0.2358 -1.9176 -0.0906
                      }
                    }
                  }
                }
                JOINT LeftFinger4
                {
                  OFFSET -0.6151 -8.0947 -3.5641
                  CHANNELS 3 Zrotation Xrotation Yrotation
                  JOINT LeftFinger41
                  {
                    OFFSET -0.4882 -2.341 -0.6462
                    CHANNELS 3 Zrotation Xrotation Yrotation
                    JOINT LeftFinger42
                    {
                      OFFSET -0.3575 -1.7167 -0.4742
                      CHANNELS 3 Zrotation Xrotation Yrotation
                      End Site
                      {
                        OFFSET -0.4187 -1.5237 -0.3496
                      }
                    }
                  }
                }
                JOINT LeftFinger0
                {
                  OFFSET -1.42 -1.8761 1.4223
                  CHANNELS 3 Zrotation Xrotation Yrotation
                  JOINT LeftFinger01
                  {
                    OFFSET -1.1471 -3.4929 2.6334
                    CHANNELS 3 Zrotation Xrotation Yrotation
                    JOINT LeftFinger02
                    {
                      OFFSET -0.823 -2.3 1.6571
                      CHANNELS 3 Zrotation Xrotation Yrotation
                      End Site
                      {
                        OFFSET -0.5822 -1.6914 1.1582
                      }
                    }
                  }
                }
              }
            }
          }
        }
        JOINT RightCollar
        {
          OFFSET -2.2603 21.606 7.4023
          CHANNELS 3 Zrotation Xrotation Yrotation
          JOINT RightShoulder
          {
            OFFSET -13.5187 -1.1334 -5.0155
            CHANNELS 3 Zrotation Xrotation Yrotation
            JOINT RightElbow
            {
              OFFSET 0.0994 -28.0499 -0.2431
              CHANNELS 3 Zrotation Xrotation Yrotation
              JOINT RightWrist
              {
                OFFSET -0.0679 -23.3996 -0.1402
                CHANNELS 3 Zrotation Xrotation Yrotation
                JOINT RightFinger1
                {
                  OFFSET -0.7932 -9.0691 2.5189
                  CHANNELS 3 Zrotation Xrotation Yrotation
                  JOINT RightFinger11
                  {
                    OFFSET 0.8272 -3.3923 0.5977
                    CHANNELS 3 Zrotation Xrotation Yrotation
                    JOINT RightFinger12
                    {
                      OFFSET 0.565 -2.3158 0.4082
                      CHANNELS 3 Zrotation Xrotation Yrotation
                      End Site
                      {
                        OFFSET 0.4919 -1.6479 0.2673
                      }
                    }
                  }
                }
                JOINT RightFinger2
                {
                  OFFSET -0.916 -9.2044 0.2193
                  CHANNELS 3 Zrotation Xrotation Yrotation
                  JOINT RightFinger21
                  {
                    OFFSET -0.0117 -4.1944 -0.0248
                    CHANNELS 3 Zrotation Xrotation Yrotation
                    JOINT RightFinger22
                    {
                      OFFSET -0.0071 -2.3249 -0.0142
                      CHANNELS 3 Zrotation Xrotation Yrotation
                      End Site
                      {
                        OFFSET 0.1475 -2.0882 0.0028
                      }
                    }
                  }
                }
                JOINT RightFinger3
                {
                  OFFSET -0.6113 -8.7231 -2.0637
                  CHANNELS 3 Zrotation Xrotation Yrotation
                  JOINT RightFinger31
                  {
                    OFFSET 0.1927 -3.8059 -0.2383
                    CHANNELS 3 Zrotation Xrotation Yrotation
                    JOINT RightFinger32
                    {
                      OFFSET 0.1091 -2.1688 -0.1362
                      CHANNELS 3 Zrotation Xrotation Yrotation
                      End Site
                      {
                        OFFSET 0.2358 -1.9176 -0.0906
                      }
                    }
                  }
                }
                JOINT RightFinger4
                {
                  OFFSET 0.6151 -8.0947 -3.564
                  CHANNELS 3 Zrotation Xrotation Yrotation
                  JOINT RightFinger41
                  {
                    OFFSET 0.4882 -2.341 -0.6462
                    CHANNELS 3 Zrotation Xrotation Yrotation
                    JOINT RightFinger42
                    {
                      OFFSET 0.3574 -1.7166 -0.4742
                      CHANNELS 3 Zrotation Xrotation Yrotation
                      End Site
                      {
                        OFFSET 0.4187 -1.5237 -0.3496
                      }
                    }
                  }
                }
                JOINT RightFinger0
                {
                  OFFSET 1.4199 -1.8761 1.4221
                  CHANNELS 3 Zrotation Xrotation Yrotation
                  JOINT RightFinger01
                  {
                    OFFSET 1.1472 -3.4929 2.6336
                    CHANNELS 3 Zrotation Xrotation Yrotation
                    JOINT RightFinger02
                    {
                      OFFSET 0.8229 -2.3 1.6571
                      CHANNELS 3 Zrotation Xrotation Yrotation
                      End Site
                      {
                        OFFSET 0.5822 -1.6914 1.1582
                      }
                    }
                  }
                }
              }
            }
          }
        }
      }
    }
  }
  JOINT RightHip
  {
    OFFSET -9.412 3.9771 -0.7758
    CHANNELS 3 Zrotation Xrotation Yrotation
    JOINT RightKnee
    {
      OFFSET -0.7531 -40.938 0
      CHANNELS 3 Zrotation Xrotation Yrotation
      JOINT RightAnkle
      {
        OFFSET 0 -40.1986 0
        CHANNELS 3 Zrotation Xrotation Yrotation
        JOINT RightToe
        {
          OFFSET 0 -4.4182 9.239
          CHANNELS 3 Zrotation Xrotation Yrotation
          End Site
          {
            OFFSET 0 0 6.1981
          }
        }
      }
    }
  }
  JOINT LeftHip
  {
    OFFSET 9.4119 3.9773 -0.7758
    CHANNELS 3 Zrotation Xrotation Yrotation
    JOINT LeftKnee
    {
      OFFSET 0.7532 -40.9383 0
      CHANNELS 3 Zrotation Xrotation Yrotation
      JOINT LeftAnkle
      {
        OFFSET 0 -40.1986 0
        CHANNELS 3 Zrotation Xrotation Yrotation
        JOINT LeftToe
        {
          OFFSET 0 -4.4182 9.239
          CHANNELS 3 Zrotation Xrotation Yrotation
          End Site
          {
            OFFSET 0 0 6.1981
          }
        }
      }
    }
  }
}
MOTION
Frames:	4
Frame Time:	0.0333333
21.6279 48.2212 -80.181 -7.00929 2.97739 112.364 2.98183 2.80615 -0.0650836 5.97759 5.60509 -0.276899 5.97761 5.60509 -0.276879 10.5023 17.7152 -39.2311 5.06493 -9.29851 0.819452 4.52498e-005 4.56682e-005 -12.5014 6.43596 -48.2947 25.0684 -170.547 -48.553 -137.241 22.7761 -16.0156 0.972945 -6.36111e-015 -1.23246e-014 7.95139e-016 -3.18055e-015 -1.11319e-014 -3.97569e-016 -0 -1.25234e-014 -0 -6.36111e-015 -1.23246e-014 7.95139e-016 -0.0128953 0.00232461 7.93059e-005 4.68978e-032 -3.37934e-015 7.95139e-016 -6.36111e-015 -1.23246e-014 7.95139e-016 -0.0160207 0.00302035 0.000846718 3.18055e-015 0 -3.97569e-016 -6.36111e-015 -1.23246e-014 7.95139e-016 -0.0127054 0.00317205 0.00284371 6.36111e-015 -1.59028e-015 -3.97569e-016 -6.36111e-015 -1.23246e-014 7.95139e-016 -3.18055e-015 -1.11319e-014 -3.97569e-016 -0 -1.25234e-014 -0 -0.865598 0.165866 7.03859 -18.9727 -51.7214 -20.0933 109.549 -78.1009 100.211 -4.69732 3.73274 -2.2894 -4.77083e-015 -1.27222e-014 9.54166e-015 3.48721e-006 -1.76645e-006 -3.05825e-006 5.29669e-031 2.38542e-015 -1.27222e-014 -4.77083e-015 -1.27222e-014 9.54166e-015 0.0129154 0.00231875 -8.2569e-005 3.18055e-015 5.56597e-015 -0 -4.77083e-015 -1.27222e-014 9.54166e-015 0.0162958 0.00303708 -0.000861632 -1.27222e-014 2.46493e-014 -1.27222e-014 -4.77083e-015 -1.27222e-014 9.54166e-015 0.0147153 0.00372144 -0.00329858 5.29669e-031 4.77083e-015 -6.36111e-015 -4.77083e-015 -1.27222e-014 9.54166e-015 3.48721e-006 -1.76645e-006 -3.05825e-006 5.29669e-031 2.38542e-015 -1.27222e-014 -13.5658 -26.3303 -34.3299 174.114 75.8993 -176.278 -3.17138 8.39597 3.28739 -1.59028e-015 2.08724e-015 7.95139e-016 -10.4677 -11.8826 -1.12527 7.74385 40.1507 -15.3861 3.68844 17.3985 -10.4813 -6.49133e-007 -1.78017e-006 5.54364e-007 
21.627 48.2215 -80.1815 -7.00929 2.97739 112.364 2.98183 2.80615 -0.0650836 5.97759 5.60509 -0.276899 5.97761 5.60509 -0.276879 10.5023 17.7152 -39.2311 5.06428 -9.25385 0.815463 4.52498e-005 4.56682e-005 -12.5014 6.436 -48.2947 25.0684 -170.547 -48.553 -137.241 22.776 -16.0157 0.972959 6.36111e-015 1.98785e-016 -3.97569e-016 3.18055e-015 1.98785e-016 -3.97569e-016 1.37935e-033 1.98785e-016 -3.97569e-016 6.36111e-015 1.98785e-016 -3.97569e-016 -0.0128966 0.00230663 9.6402e-005 3.18055e-015 -1.03368e-014 7.95139e-016 6.36111e-015 1.98785e-016 -3.97569e-016 -0.0159941 0.00296341 0.000847879 -6.35735e-006 3.19524e-006 -1.11586e-006 6.36111e-015 1.98785e-016 -3.97569e-016 -0.0127059 0.00315099 0.00284707 1.24141e-032 -1.78906e-015 3.97569e-016 6.36111e-015 1.98785e-016 -3.97569e-016 3.18055e-015 1.98785e-016 -3.97569e-016 1.37935e-033 1.98785e-016 -3.97569e-016 -0.865598 0.165866 7.03859 -18.8473 -51.2341 -19.9944 110.347 -78.0386 100.995 -4.69929 3.74519 -2.23998 9.26854e-006 5.6497e-006 -1.66005e-007 -4.77083e-015 5.56597e-015 3.18055e-015 0 5.56597e-015 -0 9.26854e-006 5.6497e-006 -1.66005e-007 0.0129716 0.0023164 -8.43269e-005 -3.18055e-015 2.38542e-015 -3.18055e-015 9.26854e-006 5.6497e-006 -1.66005e-007 0.016347 0.00303154 -0.000876767 0 1.27222e-014 -0 9.26854e-006 5.6497e-006 -1.66005e-007 0.0145739 0.00367331 -0.00324786 -1.59028e-015 3.97569e-015 -0 9.26854e-006 5.6497e-006 -1.66005e-007 -4.77083e-015 5.56597e-015 3.18055e-015 0 5.56597e-015 -0 -13.5484 -26.2812 -34.3444 174.008 75.8711 -176.174 -3.1747 8.26417 3.28545 3.18055e-015 5.1684e-015 -7.95139e-016 -10.4682 -11.883 -1.12528 7.74374 40.1503 -15.3858 3.68884 17.3994 -10.4813 -3.46911e-006 -1.13567e-005 -1.45073e-006 
21.6261 48.2217 -80.182 -7.00929 2.97739 112.364 2.98183 2.80615 -0.0650836 5.97759 5.60509 -0.276899 5.97761 5.60509 -0.276879 10.5023 17.7152 -39.2311 5.06365 -9.20922 0.811405 4.52498e-005 4.56682e-005 -12.5014 6.436 -48.2947 25.0684 -170.547 -48.553 -137.241 22.776 -16.0157 0.972959 6.36111e-015 1.98785e-016 -3.97569e-016 3.18055e-015 1.98785e-016 -3.97569e-016 1.37935e-033 1.98785e-016 -3.97569e-016 6.36111e-015 1.98785e-016 -3.97569e-016 -0.0128966 0.00230663 9.6402e-005 3.18055e-015 -1.03368e-014 7.95139e-016 6.36111e-015 1.98785e-016 -3.97569e-016 -0.0159941 0.00296341 0.000847879 -6.35735e-006 3.19524e-006 -1.11586e-006 6.36111e-015 1.98785e-016 -3.97569e-016 -0.0127059 0.00315099 0.00284707 1.24141e-032 -1.78906e-015 3.97569e-016 6.36111e-015 1.98785e-016 -3.97569e-016 3.18055e-015 1.98785e-016 -3.97569e-016 1.37935e-033 1.98785e-016 -3.97569e-016 -0.865598 0.165866 7.03859 -18.7246 -50.7467 -19.8983 111.137 -77.974 101.771 -4.70129 3.75774 -2.19057 5.85494e-006 -9.39349e-006 -5.19177e-006 4.9496e-007 3.20997e-006 -1.95567e-006 -6.3499e-006 6.18352e-006 7.14744e-006 5.85494e-006 -9.39349e-006 -5.19177e-006 0.0129965 0.0023357 -8.047e-005 -5.41327e-006 4.78669e-006 -1.08038e-005 5.85494e-006 -9.39349e-006 -5.19177e-006 0.016272 0.00303586 -0.000868903 3.18055e-015 0 3.18055e-015 5.85494e-006 -9.39349e-006 -5.19177e-006 0.0145693 0.00369596 -0.00325568 -3.18055e-015 1.59028e-015 -3.18055e-015 5.85494e-006 -9.39349e-006 -5.19177e-006 4.9496e-007 3.20997e-006 -1.95567e-006 -6.3499e-006 6.18352e-006 7.14744e-006 -13.5311 -26.2322 -34.359 173.902 75.8428 -176.071 -3.17803 8.13236 3.28352 3.18055e-015 3.67752e-015 2.38542e-015 -10.4688 -11.8834 -1.12525 7.74364 40.15 -15.3856 3.68923 17.4002 -10.4813 3.46911e-006 -1.24632e-007 1.45073e-006 
21.6252 48.222 -80.1825 -7.00929 2.97739 112.364 2.98183 2.80615 -0.0650836 5.97759 5.60509 -0.276899 5.97761 5.60509 -0.276879 10.5023 17.7152 -39.2311 5.06298 -9.16454 0.807436 4.52498e-005 4.56682e-005 -12.5014 6.43596 -48.2947 25.0684 -170.547 -48.553 -137.241 22.7761 -16.0156 0.972945 -6.36111e-015 -1.23246e-014 7.95139e-016 -3.18055e-015 -1.11319e-014 -3.97569e-016 -0 -1.25234e-014 -0 -6.36111e-015 -1.23246e-014 7.95139e-016 -0.0128953 0.00232461 7.93059e-005 4.68978e-032 -3.37934e-015 7.95139e-016 -6.36111e-015 -1.23246e-014 7.95139e-016 -0.0160207 0.00302035 0.000846718 3.18055e-015 0 -3.97569e-016 -6.36111e-015 -1.23246e-014 7.95139e-016 -0.0127054 0.00317205 0.00284371 6.36111e-015 -1.59028e-015 -3.97569e-016 -6.36111e-015 -1.23246e-014 7.95139e-016 -3.18055e-015 -1.11319e-014 -3.97569e-016 -0 -1.25234e-014 -0 -0.865598 0.165866 7.03859 -18.6038 -50.2593 -19.8042 111.917 -77.9073 102.538 -4.70329 3.77024 -2.14119 6.36111e-015 8.74653e-015 6.36111e-015 3.18055e-015 1.43125e-014 3.18055e-015 2.81255e-006 -4.70959e-007 -1.25166e-006 6.36111e-015 8.74653e-015 6.36111e-015 0.012955 0.0023086 -8.31721e-005 2.63555e-006 2.10446e-006 -4.32225e-006 6.36111e-015 8.74653e-015 6.36111e-015 0.01632 0.00303055 -0.000876732 1.76543e-007 -7.31566e-007 3.07074e-006 6.36111e-015 8.74653e-015 6.36111e-015 0.014571 0.00366265 -0.00326644 -3.18055e-015 4.77083e-015 -1.59028e-014 6.36111e-015 8.74653e-015 6.36111e-015 3.18055e-015 1.43125e-014 3.18055e-015 2.81255e-006 -4.70959e-007 -1.25166e-006 -13.5137 -26.1834 -34.3736 173.796 75.8143 -175.968 -3.18132 8.00056 3.28153 -1.59028e-015 -8.15017e-015 -1.59028e-015 -10.4694 -11.8833 -1.12523 7.74356 40.1492 -15.3853 3.68966 17.401 -10.4813 -7.21152e-006 7.14793e-006 3.66475e-006 
